<svg xmlns="http://www.w3.org/2000/svg" xmlns:xlink="http://www.w3.org/1999/xlink">
  <defs>
    <style>
      .sprite {
        display: none;
      }

      .sprite:target {
        display: block;
      }
    </style>
    <linearGradient id="gradient1" x1="93.819" y1="236.683" x2="110.573" y2="3.418" gradientUnits="userSpaceOnUse">
      <stop offset="0"/>
      <stop offset="1" stop-color="#F0F0F0"/>
    </linearGradient>
    <linearGradient id="gradient2" x1="56.202" y1="22.85" x2="43.963" y2="-7.221" gradientUnits="userSpaceOnUse">
      <stop offset="0" stop-color="#F1F1F1"/>
      <stop offset="1" stop-color="#BDBDBD"/>
    </linearGradient>
    <linearGradient id="gradient3" x1="149.042" y1="225.574" x2="164.958" y2="3.972" gradientUnits="userSpaceOnUse">
      <stop offset="0"/>
      <stop offset="1" stop-color="#F0F0F0"/>
    </linearGradient>
    <linearGradient id="gradient4" x1="113.305" y1="22.433" x2="101.679" y2="-6.135" gradientUnits="userSpaceOnUse">
      <stop offset="0" stop-color="#F1F1F1"/>
      <stop offset="1" stop-color="#BDBDBD"/>
    </linearGradient>
  </defs>
  <g id="grotem" class="sprite">
    <svg viewBox="0 0 650 157" fill="#fe7d4b">
      <path d="M 25.06 7.08 C 38.11 0.11 54.66 0.21 67.59 7.43 C 79.66 13.90 88.27 26.42 89.76 40.06 C 90.43 44.70 90.21 50.10 86.48 53.46 C 82.65 57.56 75.50 57.38 71.87 53.12 C 68.28 49.66 68.88 44.35 67.93 39.88 C 65.78 29.94 56.35 21.74 46.00 22.05 C 33.84 21.69 23.26 32.99 23.43 44.95 C 23.42 67.65 23.41 90.35 23.44 113.05 C 23.25 125.02 33.85 136.30 46.00 135.94 C 57.82 136.30 68.23 125.63 68.53 113.99 C 68.65 106.80 68.57 99.60 68.56 92.40 C 62.69 92.16 56.81 92.55 50.94 92.27 C 48.30 92.18 45.70 91.08 43.94 89.08 C 40.15 85.21 40.47 78.11 44.78 74.75 C 47.80 71.90 52.18 72.31 56.00 72.29 C 64.31 72.46 72.64 72.13 80.95 72.42 C 86.25 72.63 90.33 77.75 90.08 82.93 C 90.21 92.95 90.16 102.98 90.09 113.00 C 90.08 125.70 84.12 138.28 74.15 146.17 C 66.27 152.54 56.16 156.19 46.00 155.96 C 31.33 156.30 16.79 148.52 8.84 136.19 C 4.13 129.08 1.88 120.52 1.90 112.03 C 1.86 91.02 1.93 70.01 1.87 49.01 C 1.86 43.55 2.11 38.01 3.76 32.76 C 6.99 21.78 14.92 12.37 25.06 7.08 Z" />
      <path d="M 122.26 4.26 C 125.17 1.64 129.35 1.93 133.00 1.86 C 143.34 1.99 153.69 1.76 164.04 1.96 C 175.00 2.22 186.01 6.37 193.82 14.17 C 202.52 22.64 206.94 34.94 206.66 46.98 C 206.99 58.80 202.99 71.04 194.34 79.35 C 190.01 83.79 184.45 86.65 178.95 89.37 C 179.69 91.16 180.45 92.94 181.39 94.64 C 189.74 109.34 197.76 124.23 206.08 138.95 C 208.57 142.80 208.92 148.20 205.87 151.85 C 202.30 156.83 194.21 157.41 189.95 153.04 C 187.28 150.15 185.87 146.40 184.00 142.99 C 175.16 126.15 166.33 109.30 157.47 92.47 C 151.73 92.20 145.97 92.33 140.23 92.35 C 140.02 109.24 140.20 126.14 140.16 143.04 C 140.15 146.32 139.79 149.91 137.41 152.41 C 133.66 156.91 126.04 157.22 121.92 153.06 C 119.42 150.79 118.53 147.31 118.56 144.04 C 118.56 100.68 118.59 57.33 118.55 13.97 C 118.43 10.42 119.34 6.55 122.26 4.26 M 140.19 22.05 C 140.11 38.76 140.10 55.47 140.19 72.18 C 148.13 72.46 156.09 72.39 164.03 72.26 C 172.81 72.04 180.86 65.87 183.59 57.57 C 186.79 48.35 185.82 37.20 179.48 29.51 C 175.49 24.68 169.27 22.05 163.06 21.96 C 155.44 21.82 147.80 21.72 140.19 22.05 Z" />
      <path d="M 265.41 2.68 C 276.99 0.50 289.41 3.13 299.07 9.89 C 308.07 16.09 314.58 25.81 316.73 36.54 C 317.83 41.28 317.65 46.17 317.65 51.01 C 317.62 71.69 317.66 92.37 317.64 113.05 C 317.65 124.20 313.05 135.27 305.12 143.11 C 297.00 151.26 285.55 156.09 274.01 155.95 C 259.05 156.42 244.15 148.49 236.20 135.81 C 231.85 129.05 229.54 121.02 229.57 112.99 C 229.57 90.33 229.57 67.67 229.57 45.01 C 229.54 36.26 232.36 27.56 237.44 20.43 C 243.95 11.15 254.27 4.72 265.41 2.68 M 269.33 22.41 C 258.54 24.49 250.72 35.12 250.90 45.95 C 250.72 66.30 250.91 86.65 250.81 106.99 C 250.81 112.54 250.87 118.40 253.56 123.41 C 257.37 130.90 265.45 136.36 274.01 135.94 C 286.05 136.05 296.25 124.86 296.23 113.04 C 296.33 90.68 296.26 68.32 296.26 45.97 C 296.38 37.42 291.70 28.96 284.20 24.80 C 279.75 22.17 274.37 21.53 269.33 22.41 Z" />
      <path d="M 326.15 9.18 C 327.39 4.51 332.23 1.62 336.93 1.92 C 360.62 1.83 384.32 1.96 408.02 1.86 C 411.62 1.88 415.71 1.82 418.49 4.50 C 422.94 8.19 422.91 15.80 418.44 19.46 C 415.39 22.40 410.88 21.85 407.00 21.91 C 399.47 21.98 391.92 21.51 384.41 22.24 C 384.44 63.17 384.43 104.10 384.42 145.02 C 384.77 149.87 381.35 154.50 376.66 155.65 C 370.45 157.52 363.17 152.70 363.28 146.04 C 363.00 104.74 363.50 63.43 363.03 22.14 C 353.71 21.45 344.35 22.19 335.02 21.80 C 328.90 21.74 324.21 14.95 326.15 9.18 Z" />
      <path d="M 446.35 2.45 C 448.51 1.90 450.76 1.89 452.98 1.86 C 470.33 1.92 487.69 1.91 505.04 1.86 C 507.87 1.95 510.96 1.89 513.43 3.52 C 516.81 5.63 518.75 9.89 517.91 13.82 C 517.16 18.06 513.35 21.68 508.97 21.78 C 492.93 22.18 476.86 21.48 460.82 22.11 C 460.59 36.81 460.60 51.53 460.81 66.23 C 475.52 66.63 490.24 66.15 504.95 66.43 C 510.20 66.61 514.55 71.76 513.94 76.98 C 514.00 82.17 509.12 86.43 504.05 86.29 C 489.69 86.45 475.32 86.21 460.96 86.37 C 460.37 92.90 460.80 99.46 460.69 106.00 C 460.78 115.96 460.50 125.93 460.81 135.89 C 475.19 136.43 489.60 136.00 503.99 136.11 C 508.48 136.30 513.80 135.17 517.41 138.57 C 522.03 142.38 521.75 150.41 516.91 153.92 C 514.46 156.03 511.07 155.96 508.04 155.98 C 488.35 155.83 468.65 156.02 448.95 155.90 C 443.73 156.03 439.14 151.22 439.43 146.02 C 439.41 101.34 439.41 56.66 439.43 11.98 C 439.22 7.70 442.23 3.60 446.35 2.45 Z" />
      <path d="M 543.66 12.95 C 543.22 6.23 550.31 0.43 556.80 2.26 C 560.79 3.05 563.36 6.51 565.04 9.96 C 572.88 24.77 580.78 39.55 588.68 54.33 C 590.52 57.70 591.98 61.34 594.60 64.22 C 604.79 45.47 614.70 26.56 624.81 7.76 C 626.46 4.68 629.58 2.41 633.09 2.05 C 637.99 1.33 643.04 4.69 644.43 9.40 C 645.00 11.54 645.09 13.78 645.15 15.98 C 645.13 57.32 645.10 98.66 645.16 140.00 C 645.05 144.20 645.44 149.05 642.41 152.40 C 638.50 157.11 630.44 157.18 626.42 152.58 C 624.40 150.62 623.69 147.78 623.70 145.05 C 623.59 112.95 623.82 80.85 623.59 48.76 C 616.11 60.85 610.28 73.90 603.19 86.22 C 600.52 91.12 593.83 91.93 589.12 89.82 C 585.23 87.58 583.76 83.04 581.65 79.34 C 576.15 69.18 571.11 58.76 565.23 48.81 C 565.00 79.88 565.19 110.95 565.14 142.03 C 564.99 145.58 564.98 149.61 562.39 152.37 C 558.49 157.10 550.43 157.20 546.40 152.59 C 543.80 150.13 543.57 146.36 543.60 143.01 C 543.69 99.66 543.57 56.30 543.66 12.95 Z" />
    </svg>
  </g>
  <g id="logo" class="sprite">
    <svg viewBox="0 0 102 29">
      <path fill-rule="evenodd" clip-rule="evenodd" d="M79.92.904v13.584h-4.492V.904h-38.9l-7.872 12.713V.904h-8.449L14.48 8.48 8.675.904H.222v26.871h8.454V13.45l5.804 7.539 5.728-7.442v14.228h8.659l3.516-5.685h8.928v5.685h8.456V8.539h4.492v19.236h8.456V8.539h4.257v13.584h12.949v5.652h8.455V.905H79.92V.904zM41.312 7.669v6.791h-4.204l4.204-6.791z" fill="#C59F56"/>
      <path fill-rule="evenodd" clip-rule="evenodd" d="M91.828.904V17.34l8.455-5.099V.904h-8.455z" fill="#F0F0F0"/>
      <path fill-rule="evenodd" clip-rule="evenodd" d="M100.903 22.816c-.228-2.304-2.09-4.169-4.393-4.395a4.923 4.923 0 0 0-5.397 5.4c.23 2.304 2.091 4.169 4.393 4.396a4.924 4.924 0 0 0 5.397-5.401z" fill="#F0F0F0"/>
    </svg>
  </g>
  <g id="logo-filled" class="sprite">
    <svg viewBox="0 0 120 45">
      <path d="M0 44.554h120.264V0H0v44.554z" fill="#010202"/>
      <path d="M90.545 8.351v13.913h-4.59V8.351H46.208l-8.042 13.021V8.352h-8.632l-5.853 7.759-5.93-7.76H9.116v27.523h8.638V21.2l5.93 7.722 5.853-7.622v14.573h8.846l3.593-5.823h9.122v5.823h8.639V16.17h4.59v19.703h8.64V16.17h4.35v13.913h13.229v5.79h8.639V8.352h-8.64zm-39.448 6.93v6.955h-4.295l4.295-6.956z" fill="#C59F56"/>
      <path d="M102.711 8.351v16.835l8.638-5.223V8.351h-8.638zM111.982 30.795c-.232-2.36-2.135-4.27-4.488-4.502-3.178-.317-5.828 2.342-5.513 5.532.233 2.36 2.136 4.269 4.488 4.502 3.179.315 5.828-2.343 5.513-5.532z" fill="#EBEBEB"/>
    </svg>
  </g>
  <g id="logo-small" class="sprite">
    <svg viewBox="0 0 44 29">
      <path fill-rule="evenodd" clip-rule="evenodd" d="M33.594.188V17.49l8.9-5.368V.188h-8.9z" fill="#F0F0F0"/>
      <path fill-rule="evenodd" clip-rule="evenodd" d="M43.146 23.254c-.24-2.425-2.2-4.389-4.624-4.627a5.182 5.182 0 0 0-5.68 5.686c.24 2.424 2.2 4.387 4.624 4.626a5.183 5.183 0 0 0 5.68-5.685z" fill="#F0F0F0"/>
      <path d="M30.145.188H21.27l-6.03 7.975L9.131.188H.234v28.285h8.9V13.395l6.11 7.936 6.029-7.833v14.977h8.873V.188z" fill="#C59F56"/>
    </svg>
  </g>
  <g id="warning" class="sprite">
    <svg viewBox="0 0 24 24">
      <path d="M12 3c-4.968 0-9 4.032-9 9s4.032 9 9 9 9-4.032 9-9-4.032-9-9-9zm.9 13.5h-1.8v-1.8h1.8v1.8zm0-3.6h-1.8V7.5h1.8v5.4z"/>
    </svg>
  </g>
  <g id="error" class="sprite">
    <svg viewBox="0 0 24 24">
      <path d="M2 21h20.842L12.422 3 2 21zm11.368-2.842h-1.894v-1.895h1.894v1.895zm0-3.79h-1.894v-3.79h1.894v3.79z"/>
    </svg>
  </g>
  <g id="check-circle" class="sprite">
    <svg viewBox="0 0 24 24">
      <path d="M12 3c-4.968 0-9 4.032-9 9s4.032 9 9 9 9-4.032 9-9-4.032-9-9-9zm-1.8 13.5L5.7 12l1.269-1.269 3.231 3.222 6.831-6.831L18.3 8.4l-8.1 8.1z"/>
    </svg>
  </g>
  <g id="drop-down" class="sprite">
    <svg viewBox="0 0 24 24">
      <path d="m7 10 5 5 5-5H7z"/>
    </svg>
  </g>
  <g id="close" class="sprite">
    <svg viewBox="0 0 24 24">
      <path d="M18 7.209 16.791 6 12 10.791 7.209 6 6 7.209 10.791 12 6 16.791 7.209 18 12 13.209 16.791 18 18 16.791 13.209 12 18 7.209z"/>
    </svg>
  </g>
  <g id="close-circle" class="sprite">
  <svg viewBox="0 0 24 24">
    <path d="m9 15.84 3-3 3 3 .84-.84-3-3 3-3-.84-.84-3 3-3-3-.84.84 3 3-3 3 .84.84zM12 20a7.74 7.74 0 0 1-3.1-.63 8.114 8.114 0 0 1-2.55-1.72 8.115 8.115 0 0 1-1.72-2.55A7.74 7.74 0 0 1 4 12c0-1.107.21-2.147.63-3.12.42-.973.993-1.82 1.72-2.54A8.2 8.2 0 0 1 8.9 4.63 7.74 7.74 0 0 1 12 4a7.79 7.79 0 0 1 3.12.63c.973.42 1.82.99 2.54 1.71s1.29 1.567 1.71 2.54c.42.973.63 2.013.63 3.12a7.74 7.74 0 0 1-.63 3.1 8.202 8.202 0 0 1-1.71 2.55 7.995 7.995 0 0 1-2.54 1.72A7.79 7.79 0 0 1 12 20z"/>
  </svg>
  </g>
  <g id="calendar" class="sprite">
    <svg viewBox="0 0 24 24">
      <path d="M18.222 4.778h-.889V3h-1.777v1.778H8.444V3H6.667v1.778h-.89c-.986 0-1.777.8-1.777 1.778V19c0 .978.791 1.778 1.778 1.778h12.444c.978 0 1.778-.8 1.778-1.778V6.556c0-.978-.8-1.778-1.778-1.778zm0 14.222H5.778v-8.889h12.444V19zm0-10.667H5.778V6.556h12.444v1.777zM7.556 11.89H12v4.444H7.556V11.89z"/>
    </svg>
  </g>
  <g id="lock" class="sprite">
    <svg viewBox="0 0 24 24">
      <path d="M17 9h-.857V7.286A4.287 4.287 0 0 0 11.857 3a4.287 4.287 0 0 0-4.286 4.286V9h-.857A1.72 1.72 0 0 0 5 10.714v8.572A1.72 1.72 0 0 0 6.714 21H17a1.72 1.72 0 0 0 1.714-1.714v-8.572A1.72 1.72 0 0 0 17 9zM9.286 7.286a2.568 2.568 0 0 1 2.571-2.572 2.568 2.568 0 0 1 2.572 2.572V9H9.286V7.286zm7.714 12H6.714v-8.572H17v8.572zm-5.143-2.572A1.72 1.72 0 0 0 13.571 15a1.72 1.72 0 0 0-1.714-1.714A1.72 1.72 0 0 0 10.143 15a1.72 1.72 0 0 0 1.714 1.714z"/>
    </svg>
  </g>
  <g id="unlock" class="sprite">
    <svg viewBox="0 0 24 24">
      <path d="M9.827 7.09c0-1.398 1.137-2.535 2.537-2.535 1.399 0 2.536 1.137 2.536 2.536v1.636h-3.813l1.637 1.637h4.549v4.549l1.636 1.636v-6.185c0-.9-.736-1.637-1.636-1.637h-.819V7.091A4.092 4.092 0 0 0 12.364 3 4.08 4.08 0 0 0 8.42 6.06l1.407 1.407v-.376zm-3.673-.973L5 7.271 6.67 8.94c-.508.278-.852.81-.852 1.424v8.181c0 .9.737 1.637 1.637 1.637H17.91l.818.818 1.154-1.154L6.153 6.117zm1.3 12.428v-8.181h.639l8.181 8.181h-8.82z"/>
    </svg>
  </g>
  <g id="search" class="sprite">
    <svg viewBox="0 0 24 24">
      <path d="M15.5 14h-.79l-.28-.27A6.471 6.471 0 0 0 16 9.5 6.5 6.5 0 1 0 9.5 16c1.61 0 3.09-.59 4.23-1.57l.27.28v.79l5 4.99L20.49 19l-4.99-5zm-6 0C7.01 14 5 11.99 5 9.5S7.01 5 9.5 5 14 7.01 14 9.5 11.99 14 9.5 14z"/>
    </svg>
  </g>
  <g id="arrow-down" class="sprite">
    <svg viewBox="0 0 24 24">
      <path d="M8.175 9 12 12.817 15.825 9 17 10.175l-5 5-5-5L8.175 9z"/>
    </svg>
  </g>
  <g id="arrow-up" class="sprite">
    <svg  viewBox="0 0 24 24">
      <path d="M8.175 15.175 12 11.358l3.825 3.817L17 14l-5-5-5 5 1.175 1.175z"/>
    </svg>
  </g>
  <g id="arrow-right" class="sprite">
    <svg viewBox="0 0 24 24">
      <path style="fill: currentColor" d="m17.5 5.999-.707.707 5.293 5.293H1v1h21.086l-5.294 5.295.707.707L24 12.499l-6.5-6.5z"/>
    </svg>
  </g>
  <g id="star" class="sprite">
    <svg viewBox="0 0 24 24">
      <path d="M12.316 15.644 16.219 18l-1.036-4.44 3.449-2.987-4.542-.386L12.317 6l-1.775 4.187L6 10.573l3.448 2.987L8.413 18l3.903-2.356z"/>
    </svg>
  </g>
  <g id="check" class="sprite">
    <svg viewBox="0 0 24 24">
      <path d="m8.433 16.284-4.075-4.075L3 13.567 8.433 19 20.075 7.358 18.716 6 8.433 16.284z"/>
    </svg>
  </g>
  <g id="add" class="sprite">
    <svg viewBox="0 0 24 24">
      <path d="M12.897 3.098h-1.995v7.905H2.997v1.994h7.905v7.905h1.995v-7.905h7.905v-1.994h-7.905V3.098z"/>
    </svg>
  </g>
  <g id="edit" class="sprite">
    <svg viewBox="0 0 24 24">
      <path d="M4 16.875V20h3.125l9.215-9.215-3.125-3.125L4 16.875zm14.756-8.507a.83.83 0 0 0 0-1.175l-1.95-1.95a.83.83 0 0 0-1.174 0L14.107 6.77l3.125 3.124 1.524-1.525z"/>
    </svg>
  </g>
  <g id="delete" class="sprite">
    <svg viewBox="0 0 24 24">
      <path d="M15.389 9.667v9.444H7.833V9.667h7.556zM13.972 4H9.25l-.944.944H5v1.89h13.222v-1.89h-3.305L13.972 4zm3.306 3.778H5.944V19.11c0 1.039.85 1.889 1.89 1.889h7.555c1.039 0 1.889-.85 1.889-1.889V7.778z"/>
    </svg>
  </g>
  <g id="logout" class="sprite">
    <svg viewBox="0 0 24 24">
      <path d="m9.696 15.89 1.332 1.332L15.75 12.5l-4.722-4.722-1.332 1.331 2.437 2.447H3v1.888h9.133l-2.437 2.447zM18.111 4H4.89C3.84 4 3 4.85 3 5.889v3.778h1.889V5.889H18.11V19.11H4.89v-3.778H3v3.778C3 20.15 3.84 21 4.889 21H18.11C19.15 21 20 20.15 20 19.111V5.89C20 4.85 19.15 4 18.111 4z"/>
    </svg>
  </g>
  <g id="menu" class="sprite">
    <svg viewBox="0 0 24 24">
      <path d="M4 18h11c.55 0 1-.45 1-1s-.45-1-1-1H4c-.55 0-1 .45-1 1s.45 1 1 1zm0-5h8c.55 0 1-.45 1-1s-.45-1-1-1H4c-.55 0-1 .45-1 1s.45 1 1 1zM3 7c0 .55.45 1 1 1h11c.55 0 1-.45 1-1s-.45-1-1-1H4c-.55 0-1 .45-1 1zm17.3 7.88L17.42 12l2.88-2.88a.996.996 0 1 0-1.41-1.41L15.3 11.3a.996.996 0 0 0 0 1.41l3.59 3.59c.39.39 1.02.39 1.41 0 .38-.39.39-1.03 0-1.42z"/>
    </svg>
  </g>
  <g id="filter" class="sprite">
    <svg viewBox="0 0 20 20">
      <path d="M5.132 6.006c1.263 1.619 3.594 4.619 3.594 4.619v3.75c0 .344.281.625.625.625h1.25a.627.627 0 0 0 .625-.625v-3.75s2.325-3 3.587-4.619A.624.624 0 0 0 14.32 5H5.626a.624.624 0 0 0-.494 1.006z"/>
    </svg>
  </g>
  <g id="setting" class="sprite">
    <svg viewBox="0 0 24 24">
      <path d="M19.16 12.98c.04-.32.07-.64.07-.98 0-.34-.03-.66-.07-.98l2.11-1.65c.19-.15.24-.42.12-.64l-2-3.46a.5.5 0 0 0-.61-.22l-2.49 1c-.52-.4-1.08-.73-1.69-.98l-.38-2.65a.488.488 0 0 0-.49-.42h-4c-.25 0-.46.18-.49.42l-.38 2.65c-.61.25-1.17.59-1.69.98l-2.49-1a.566.566 0 0 0-.18-.03c-.17 0-.34.09-.43.25l-2 3.46c-.13.22-.07.49.12.64l2.11 1.65c-.04.32-.07.65-.07.98 0 .33.03.66.07.98l-2.11 1.65c-.19.15-.24.42-.12.64l2 3.46a.5.5 0 0 0 .61.22l2.49-1c.52.4 1.08.73 1.69.98l.38 2.65c.03.24.24.42.49.42h4c.25 0 .46-.18.49-.42l.38-2.65c.61-.25 1.17-.59 1.69-.98l2.49 1c.06.02.12.03.18.03.17 0 .34-.09.43-.25l2-3.46c.12-.22.07-.49-.12-.64l-2.11-1.65zm-1.98-1.71c.04.31.05.52.05.73 0 .21-.02.43-.05.73l-.14 1.13.89.7 1.08.84-.7 1.21-1.27-.51-1.04-.42-.9.68c-.43.32-.84.56-1.25.73l-1.06.43-.16 1.13-.2 1.35h-1.4l-.19-1.35-.16-1.13-1.06-.43c-.43-.18-.83-.41-1.23-.71l-.91-.7-1.06.43-1.27.51-.7-1.21 1.08-.84.89-.7-.14-1.13c-.03-.31-.05-.54-.05-.74 0-.2.02-.43.05-.73l.14-1.13-.89-.7-1.08-.84.7-1.21 1.27.51 1.04.42.9-.68c.43-.32.84-.56 1.25-.73l1.06-.43.16-1.13.2-1.35h1.39l.19 1.35.16 1.13 1.06.43c.43.18.83.41 1.23.71l.91.7 1.06-.43 1.27-.51.7 1.21-1.07.85-.89.7.14 1.13zM11.73 8c-2.21 0-4 1.79-4 4s1.79 4 4 4 4-1.79 4-4-1.79-4-4-4zm0 6c-1.1 0-2-.9-2-2s.9-2 2-2 2 .9 2 2-.9 2-2 2z"/>
    </svg>
  </g>
  <g id="users" class="sprite">
    <svg viewBox="0 0 24 24">
      <path d="M4 18v-.65c0-.34.16-.66.41-.81C6.1 15.53 8.03 15 10 15c.03 0 .05 0 .08.01.1-.7.3-1.37.59-1.98-.22-.02-.44-.03-.67-.03-2.42 0-4.68.67-6.61 1.82-.88.52-1.39 1.5-1.39 2.53V20h9.26c-.42-.6-.75-1.28-.97-2H4zM10 12c2.21 0 4-1.79 4-4s-1.79-4-4-4-4 1.79-4 4 1.79 4 4 4zm0-6c1.1 0 2 .9 2 2s-.9 2-2 2-2-.9-2-2 .9-2 2-2zM20.75 16c0-.22-.03-.42-.06-.63l1.14-1.01-1-1.73-1.45.49c-.32-.27-.68-.48-1.08-.63L18 11h-2l-.3 1.49c-.4.15-.76.36-1.08.63l-1.45-.49-1 1.73 1.14 1.01c-.03.21-.06.41-.06.63 0 .22.03.42.06.63l-1.14 1.01 1 1.73 1.45-.49c.32.27.68.48 1.08.63L16 21h2l.3-1.49c.4-.15.76-.36 1.08-.63l1.45.49 1-1.73-1.14-1.01c.03-.21.06-.41.06-.63zM17 18c-1.1 0-2-.9-2-2s.9-2 2-2 2 .9 2 2-.9 2-2 2z"/>
    </svg>
  </g>
  <g id="carrier" class="sprite">
    <svg viewBox="0 0 24 24">
      <path d="M22 9V7h-2v2h-2v2h2v2h2v-2h2V9h-2zM8 12c2.21 0 4-1.79 4-4s-1.79-4-4-4-4 1.79-4 4 1.79 4 4 4zm0-6c1.1 0 2 .9 2 2s-.9 2-2 2-2-.9-2-2 .9-2 2-2zM8 13c-2.67 0-8 1.34-8 4v3h16v-3c0-2.66-5.33-4-8-4zm6 5H2v-.99C2.2 16.29 5.3 15 8 15s5.8 1.29 6 2v1zM12.51 4.05A6.016 6.016 0 0 1 14 8c0 1.51-.57 2.89-1.49 3.95C14.47 11.7 16 10.04 16 8s-1.53-3.7-3.49-3.95zM16.53 13.83C17.42 14.66 18 15.7 18 17v3h2v-3c0-1.45-1.59-2.51-3.47-3.17z"/>
    </svg>
  </g>
  <g id="car" class="sprite">
    <svg viewBox="0 0 24 24">
      <path d="M18.92 6.01C18.72 5.42 18.16 5 17.5 5H15V3H9v2H6.5c-.66 0-1.21.42-1.42 1.01L3 12v8c0 .55.45 1 1 1h1c.55 0 1-.45 1-1v-1h12v1c0 .55.45 1 1 1h1c.55 0 1-.45 1-1v-8l-2.08-5.99zM6.85 7h10.29l1.04 3H5.81l1.04-3zM19 17H5v-4.66l.12-.34h13.77l.11.34V17z"/>
      <path d="M7.5 16a1.5 1.5 0 1 0 0-3 1.5 1.5 0 0 0 0 3zM16.5 16a1.5 1.5 0 1 0 0-3 1.5 1.5 0 0 0 0 3z"/>
    </svg>
  </g>
  <g id="driver" class="sprite">
    <svg viewBox="0 0 24 24">
      <path d="M12 12c1.65 0 3-1.35 3-3s-1.35-3-3-3-3 1.35-3 3 1.35 3 3 3zm0-4c.55 0 1 .45 1 1s-.45 1-1 1-1-.45-1-1 .45-1 1-1zm6 8.58c0-2.5-3.97-3.58-6-3.58s-6 1.08-6 3.58V18h12v-1.42zM8.48 16c.74-.51 2.23-1 3.52-1s2.78.49 3.52 1H8.48zM19 3H5a2 2 0 0 0-2 2v14a2 2 0 0 0 2 2h14c1.1 0 2-.9 2-2V5c0-1.1-.9-2-2-2zm0 16H5V5h14v14z"/>
    </svg>
  </g>
  <g id="location" class="sprite">
    <svg viewBox="0 0 24 24">
      <path d="M12 12c-1.1 0-2-.9-2-2s.9-2 2-2 2 .9 2 2-.9 2-2 2zm6-1.8C18 6.57 15.35 4 12 4s-6 2.57-6 6.2c0 2.34 1.95 5.44 6 9.14 4.05-3.7 6-6.8 6-9.14zM12 2c4.2 0 8 3.22 8 8.2 0 3.32-2.67 7.25-8 11.8-5.33-4.55-8-8.48-8-11.8C4 5.22 7.8 2 12 2z"/>
    </svg>
  </g>
  <g id="workers" class="sprite">
    <svg viewBox="0 0 24 24">
      <path d="M9 14c-2.674 0-8 1.337-8 4v2h16v-2c0-2.663-5.326-4-8-4zm-5.326 3.714c.96-.663 3.28-1.428 5.326-1.428s4.366.765 5.326 1.428H3.674zM9 12c2.206 0 4-1.794 4-4s-1.794-4-4-4-4 1.794-4 4 1.794 4 4 4zm0-5.714c.949 0 1.714.765 1.714 1.714S9.95 9.714 9 9.714A1.712 1.712 0 0 1 7.286 8c0-.949.765-1.714 1.714-1.714zm8.046 7.783c1.325.96 2.24 2.24 2.24 3.931v2h4.571v-2c0-2.309-4-3.623-6.811-3.931zM15.857 12c2.206 0 4-1.794 4-4s-1.794-4-4-4c-.617 0-1.188.149-1.714.4A6.218 6.218 0 0 1 15.286 8a6.218 6.218 0 0 1-1.143 3.6c.526.251 1.097.4 1.714.4z"/>
    </svg>
  </g>
  <g id="home" class="sprite">
    <svg viewBox="0 0 24 24">
      <path d="M7.6 3 1 9.6v11h13.2v-11L7.6 3zM12 18.4H8.7v-3.3H6.5v3.3H3.2v-7.887l4.4-4.4 4.4 4.4V18.4zm-3.3-5.5H6.5v-2.2h2.2v2.2zm9.9 7.7V7.785L13.815 3h-3.113L16.4 8.698V20.6h2.2zm4.4 0V5.959L20.041 3h-3.113L20.8 6.872V20.6H23z"/>
    </svg>
  </g>
  <g id="document" class="sprite">
    <svg viewBox="0 0 24 24">
      <path d="M8 16h8v2H8v-2zm0-4h8v2H8v-2zm6-10H6c-1.1 0-2 .9-2 2v16c0 1.1.89 2 1.99 2H18c1.1 0 2-.9 2-2V8l-6-6zm4 18H6V4h7v5h5v11z"/>
    </svg>
  </g>
  <g id="status" class="sprite">
    <svg viewBox="0 0 20 20" >
      <circle cx="10" cy="10" r="4.167"/>
    </svg>
  </g>
  <g id="circle-empty" class="sprite">
    <svg viewBox="0 0 24 24">
      <path d="M16 12a4 4 0 1 1-8 0 4 4 0 0 1 8 0z" stroke-width="2"/>
    </svg>
  </g>
  <g id="video-cam" class="sprite">
    <svg viewBox="0 0 48 48">
      <path d="M7.779 40c-1.02 0-1.906-.375-2.655-1.124C4.374 38.126 4 37.242 4 36.22V11.827c0-1.053.375-1.954 1.124-2.703C5.874 8.374 6.758 8 7.78 8h24.394c1.053 0 1.954.375 2.703 1.124.75.75 1.124 1.65 1.124 2.703V21.87l7.653-7.653V33.83L36 26.176v10.045c0 1.02-.375 1.906-1.124 2.655-.75.75-1.65 1.124-2.703 1.124H7.78zm0-3.779h24.394V11.827H7.78V36.22zm0 0V11.827 36.22z" fill="#C59F56"/>
    </svg>
  </g>
  <g id="drag-handle" class="sprite">
    <svg viewBox="0 0 24 24">
      <path d="M4 15.475V13.5h16.5v1.975H4zM4 10V8h16.5v2H4z"/>
    </svg>
  </g>
  <g id="error-photo" class="sprite">
    <svg xmlns="http://www.w3.org/2000/svg" viewBox="0 0 48 48">
      <path d="M10 44c-1.667 0-3.083-.583-4.25-1.75C4.583 41.083 4 39.667 4 38V10c0-1.667.583-3.083 1.75-4.25C6.917 4.583 8.333 4 10 4h28c1.667 0 3.083.583 4.25 1.75C43.417 6.917 44 8.333 44 10v28c0 1.667-.583 3.083-1.75 4.25C41.083 43.417 39.667 44 38 44H10zm0-3h28c.867 0 1.583-.292 2.15-.875S41 38.833 41 38V10c0-.867-.283-1.583-.85-2.15S38.867 7 38 7H10c-.833 0-1.542.283-2.125.85S7 9.133 7 10v28c0 .833.292 1.542.875 2.125A2.893 2.893 0 0 0 10 41zm3.2-5.5 6.8-6.8 3.65 3.6L28 26.8l6.95 8.7H13.2zm2.8-16a3.372 3.372 0 0 1-2.475-1.025A3.372 3.372 0 0 1 12.5 16c0-.967.342-1.792 1.025-2.475A3.372 3.372 0 0 1 16 12.5c.967 0 1.792.342 2.475 1.025A3.372 3.372 0 0 1 19.5 16c0 .967-.342 1.792-1.025 2.475A3.372 3.372 0 0 1 16 19.5z"/>
    </svg>
  </g>
  <g id="upload" class="sprite">
    <svg viewBox="0 0 24 25" fill="none">
      <path d="M5.45 20.6c-.433 0-.812-.163-1.137-.488-.325-.325-.488-.704-.488-1.138V15.15H5.45v3.825h13.075V15.15h1.65v3.8c0 .45-.162.838-.487 1.163a1.587 1.587 0 0 1-1.163.487H5.45zm5.725-4.1V7.35L8.25 10.3 7.075 9.15 12 4.2l4.95 4.95-1.175 1.15-2.95-2.95v9.15h-1.65z" fill="#999"/>
    </svg>
  </g>
</svg>
